<svg xmlns="http://www.w3.org/2000/svg" viewBox="0 0 112 112"><defs><style>.cls-1{fill:#acd1e6;}</style></defs><title>Lricon</title><g id="Warstwa_2" data-name="Warstwa 2"><g id="Warstwa_1-2" data-name="Warstwa 1"><path class="cls-1" d="M56,112a56,56,0,1,1,56-56A56.06,56.06,0,0,1,56,112ZM56,8a48,48,0,1,0,48,48A48.05,48.05,0,0,0,56,8Z"/><path class="cls-1" d="M32.57,32.46h9.84V69.55H59.27v7.89H32.57Z"/><path class="cls-1" d="M65.06,54.15c0-4.41-.07-7.62-.28-10.5h7.56l.35,6.15h.21a10.35,10.35,0,0,1,9.56-6.88,10,10,0,0,1,2.07.2v7.69a14.48,14.48,0,0,0-2.64-.2,7.58,7.58,0,0,0-7.84,6.22,12.68,12.68,0,0,0-.22,2.47V77.44H65.06Z"/></g></g></svg>