<?xml version="1.0" encoding="UTF-8"?>
<!DOCTYPE svg PUBLIC "-//W3C//DTD SVG 1.1//EN" "http://www.w3.org/Graphics/SVG/1.1/DTD/svg11.dtd">
<!-- Creator: CorelDRAW X6 -->
<svg xmlns="http://www.w3.org/2000/svg" xml:space="preserve" width="26.1681mm" height="26.168mm" version="1.1" style="shape-rendering:geometricPrecision; text-rendering:geometricPrecision; image-rendering:optimizeQuality; fill-rule:evenodd; clip-rule:evenodd"
viewBox="0 0 404 404"
 xmlns:xlink="http://www.w3.org/1999/xlink">
 <defs>
  <style type="text/css">
   <![CDATA[
    .fil0 {fill:#AE4A84}
    .fil1 {fill:#FEFEFE}
   ]]>
  </style>
 </defs>
 <g id="Warstwa_x0020_1">
  <metadata id="CorelCorpID_0Corel-Layer"/>
  <g id="_720438672">
   <path class="fil0" d="M202 249c-26,0 -47,-21 -47,-47 0,-26 21,-47 47,-47 26,0 47,21 47,47 0,26 -21,47 -47,47z"/>
   <path class="fil1" d="M184 34c-2,-2 -5,-4 -8,-7l0 0 -25 25 0 0 30 30c3,3 3,2 3,7 0,12 0,24 0,37 -5,1 -17,11 -21,12 -3,-2 -35,-34 -49,-49l0 0 -25 25 0 0c13,12 42,42 42,43 0,1 -2,5 -2,7 -1,2 -2,4 -2,7l0 14 -41 0c-2,0 -25,-24 -27,-26l-7 -7 0 0 -26 26 0 0 1 1c2,2 5,5 7,7 -3,0 -9,0 -15,0l0 0 -18 18 -1 1 18 18 1 0c6,0 11,0 15,0 -1,2 -4,5 -7,8l0 0 25 25 0 0 6 -6 14 -13c2,-2 13,-14 14,-14l41 0 0 14c0,3 4,9 4,13 -2,3 -30,31 -43,43l0 0 25 25 0 0 32 -32c3,-3 5,-5 8,-8 2,-2 7,-6 8,-8 5,3 11,6 16,9 1,1 2,1 3,1 1,1 2,1 2,2l0 39c0,2 -24,25 -26,27l-7 7 0 0 25 25 0 0c3,-3 6,-6 8,-8 0,3 0,9 0,16l0 0 18 18 18 -18c0,-7 0,-14 0,-16 3,2 6,5 9,8l25 -25 -31 -31c-3,-3 -3,-1 -3,-6 0,-12 0,-24 0,-36 1,0 4,-2 5,-3l16 -9c1,2 33,34 49,49l26 -26c-6,-6 -13,-13 -15,-14 -3,-3 -25,-26 -29,-28 1,-4 5,-10 5,-13l0 -14 41 0c2,0 26,26 28,27l6 6 25 -25c-3,-3 -6,-6 -8,-8 5,0 10,0 15,0l18 -18 -18 -18c-6,0 -12,0 -16,0 1,-2 4,-5 8,-8l-25 -25 -7 7c-2,2 -25,26 -27,26l-41 0c0,-10 1,-12 -2,-21 -1,-2 -2,-5 -3,-7 3,-2 11,-11 14,-14l29 -29 -25 -25c-14,14 -47,47 -49,49l-19 -11c-1,-1 -2,-1 -2,-2l0 -38c0,-2 24,-25 26,-26l8 -8 -25 -25c-3,3 -6,6 -9,8 0,-3 0,-10 0,-17l-17 -17 -1 -1 -18 18 0 1c0,6 0,12 0,15zm-21 190l0 -43c0,-2 7,-5 9,-6l30 -17c1,0 2,0 5,2l10 6c3,2 24,14 25,14l0 46c-3,2 -6,4 -10,6 -3,2 -6,4 -10,6 -2,1 -19,11 -20,11 -1,0 -9,-5 -10,-6l-25 -14c-1,-1 -2,-1 -3,-1 -1,-1 -2,-1 -2,-2z"/>
  </g>
 </g>
</svg>
