<svg xmlns="http://www.w3.org/2000/svg" viewBox="0 0 112 112"><defs><style>.cls-1{fill:#a0cbfe;}</style></defs><title>Psicon</title><g id="Warstwa_2" data-name="Warstwa 2"><g id="Warstwa_1-2" data-name="Warstwa 1"><path class="cls-1" d="M53.86,36.78c-3-2.5-7.51-3.76-13.44-3.76A72.63,72.63,0,0,0,27.93,34l-.51.09V79h9.27V62.31a22.28,22.28,0,0,0,3.33.2c6.14,0,11.14-1.72,14.47-5,2.57-2.51,3.94-6.13,3.94-10.46A13.21,13.21,0,0,0,53.86,36.78ZM40,55a15.67,15.67,0,0,1-3.33-.25V40.79a24.85,24.85,0,0,1,4.06-.28c5.42,0,8.41,2.45,8.41,6.89C49.16,52.13,45.74,55,40,55Z"/><path class="cls-1" d="M75.62,58c-4.13-1.53-5.2-2.33-5.2-3.9,0-1.73,1.48-2.81,3.86-2.81A13.52,13.52,0,0,1,80.75,53l.69.41,2-6.91L83,46.27a19.35,19.35,0,0,0-8.86-2c-7.5,0-12.74,4.37-12.74,10.62,0,3.12,1.61,7.37,9.23,9.94,4.17,1.52,4.87,2.5,4.87,4.1,0,2.61-2.83,3-4.52,3a16.72,16.72,0,0,1-7.84-2.28l-.7-.44-2,7.2.42.23A21.31,21.31,0,0,0,70.92,79c8.43,0,13.66-4.1,13.66-10.7C84.51,63.28,81.74,60.09,75.62,58Z"/><path class="cls-1" d="M56,112a56,56,0,1,1,56-56A56.06,56.06,0,0,1,56,112ZM56,8a48,48,0,1,0,48,48A48.05,48.05,0,0,0,56,8Z"/></g></g></svg>