<svg xmlns="http://www.w3.org/2000/svg" viewBox="0 0 112 112"><defs><style>.cls-1{fill:#ff7d00;}</style></defs><title>Aiicon</title><g id="Warstwa_2" data-name="Warstwa 2"><g id="Warstwa_1-2" data-name="Warstwa 1"><path class="cls-1" d="M56,112a56,56,0,1,1,56-56A56.06,56.06,0,0,1,56,112ZM56,8a48,48,0,1,0,48,48A48.05,48.05,0,0,0,56,8Z"/><path class="cls-1" d="M41.37,33.71,26.75,79.34h9.67l3.82-12.58H53.36l4,12.58H67.44L52.62,33.71ZM46.5,43.88c.07-.28.13-.56.2-.83.51,2,1.08,4.22,1.72,6.22L51.65,59.4H41.94l3.18-10.15C45.59,47.56,46.05,45.69,46.5,43.88Z"/><path class="cls-1" d="M76.15,42.65a5,5,0,1,0-5.1-5A4.93,4.93,0,0,0,76.15,42.65Z"/><rect class="cls-1" x="71.51" y="46.03" width="9.34" height="33.31"/></g></g></svg>