<svg xmlns="http://www.w3.org/2000/svg" viewBox="0 0 112 112"><defs><style>.cls-1{fill:#e9872b;}</style></defs><title>Blendericon</title><g id="Warstwa_2" data-name="Warstwa 2"><g id="Warstwa_1-2" data-name="Warstwa 1"><path class="cls-1" d="M56,112a56,56,0,1,1,56-56A56.06,56.06,0,0,1,56,112ZM56,8a48,48,0,1,0,48,48A48.05,48.05,0,0,0,56,8Z"/><path class="cls-1" d="M85.61,40.61c-7.8-6.43-15.86-12.53-23.84-18.74A8.06,8.06,0,0,0,57.64,20c-1.68-.17-3.63.8-4.13,2.11-.65,1.7.47,2.67,1.57,3.63.16.14.34.26.5.4L65,33.92a3.09,3.09,0,0,1-2,.33q-15.09.09-30.19.13a5.8,5.8,0,0,0-5.47,2.86,2.77,2.77,0,0,0,1.74,4.25,11.13,11.13,0,0,0,3.31.27q6.75-.15,13.5-.23c.33,0,.81-.21,1,.22s-.27.64-.53.86c-1,.91-2.07,1.82-3.15,2.67q-12.2,9.53-24.42,19a11.21,11.21,0,0,0-2.49,2.42,5.07,5.07,0,0,0-.12,5.41c1,1.41,2.75,1.82,4.89,1.19a9.07,9.07,0,0,0,3.22-1.66Q31.51,65.85,38.76,60c.31-.24.57-.78,1.06-.47s.16.68.16,1a21.56,21.56,0,0,0,3.13,11c5,8.21,12.36,12.66,21.81,13.46,10.45.89,19.23-2.7,25.57-11.17C98.38,63.36,96.23,49.36,85.61,40.61ZM84.43,61.38c-1.54,6.05-5.75,9.71-11.61,11.56a17.46,17.46,0,0,1-5.33.73,17.42,17.42,0,0,1-14-6.56,15.08,15.08,0,0,1,.9-19.91c6.74-7.15,18.73-7.51,25.78-.66A14.67,14.67,0,0,1,84.43,61.38Z"/><path class="cls-1" d="M75,50.37a10.81,10.81,0,0,0-12.18-1.52A9,9,0,0,0,57.2,57C57,62.54,61.72,67,67.9,67A9.13,9.13,0,0,0,71,66.57c3.64-1.15,6.26-3.43,7.11-7.21A8.6,8.6,0,0,0,75,50.37Z"/></g></g></svg>