<svg xmlns="http://www.w3.org/2000/svg" viewBox="0 0 112 112"><defs><style>.cls-1{fill:#9dc255;}</style></defs><title>Corelicon</title><g id="Warstwa_2" data-name="Warstwa 2"><g id="Warstwa_1-2" data-name="Warstwa 1"><path class="cls-1" d="M56,112a56,56,0,1,1,56-56A56.06,56.06,0,0,1,56,112ZM56,8a48,48,0,1,0,48,48A48.05,48.05,0,0,0,56,8Z"/><path class="cls-1" d="M79.94,11.06c0,1.21,2.37,1,1.56,1.94S53.65,44.64,52.32,46.51c-.89,1.24-1,3.05.54,3.88,1.9,1,3.49-1.09,4.6-2.33,5.4-6,26.31-30.73,27.67-32.44.92-1.15.81-.21,1.93-1,2-1.4,1.13,3.44,3,4.5A26.91,26.91,0,0,1,95,22.87c1.33,1.22,3.74,3,4.42,4.67.34.86-.28,1.59-.6,2.39a5.6,5.6,0,0,1-1.28,1.7c-1.58,1.62-30.65,35-33.65,38.61-1.15,1.39-1.9,2.12-3.48,1-2-1.41-3.73-3.15-5.55-4.73-3.67-3.17-7.29-6.4-11-9.58-.82-.72-1.65-1.42-2.48-2.13S39,53.22,38.62,52.35s.19-1.17.68-1.68c.64-.66,35-39.56,35.89-39.8S79,10.18,79.94,11.06Z"/><path class="cls-1" d="M32.41,86.28l23.65-8.45a2.36,2.36,0,0,0,.74-4L37.65,57.54a2.37,2.37,0,0,0-3.86,1.38l-4.5,24.71A2.36,2.36,0,0,0,32.41,86.28Z"/></g></g></svg>