<svg xmlns="http://www.w3.org/2000/svg" viewBox="0 0 238.07 238.07"><defs><style>.cls-1{fill:#fff;}</style></defs><title>golapicon</title><g id="Warstwa_2" data-name="Warstwa 2"><g id="Warstwa_1-2" data-name="Warstwa 1"><path class="cls-1" d="M100.48,128a.48.48,0,0,1-.1-.17v.18Z"/><path class="cls-1" d="M168.46,197.42l-.05.09.06-.08Z"/><path class="cls-1" d="M134.69,192l-.11,0,.12,0h0S134.7,192,134.69,192Z"/><path class="cls-1" d="M130.16,197.27l.14-.05-.12-.13Z"/><path class="cls-1" d="M132.76,183.68h0Z"/><path class="cls-1" d="M131,195.69l0,.07h0l-.09-.07Z"/><polygon class="cls-1" points="145.51 197.82 145.51 197.82 145.51 197.82 145.51 197.82"/><path class="cls-1" d="M158.62,194.1h0Z"/><path class="cls-1" d="M154.28,191.74a.56.56,0,0,1-.05-.08l0,.08h.08Z"/><path class="cls-1" d="M154.72,193.91h0l0,0Z"/><polygon class="cls-1" points="154.93 193.12 154.93 193.13 154.94 193.13 154.93 193.12"/><path class="cls-1" d="M40.71,178.53s0,.07,0,.11a.41.41,0,0,0,0-.11Z"/><polygon class="cls-1" points="85.11 165.81 85.11 165.81 85.11 165.81 85.11 165.81"/><path class="cls-1" d="M56.7,168.38h0Z"/><polygon class="cls-1" points="55.27 169.82 55.27 169.82 55.27 169.82 55.27 169.82"/><path class="cls-1" d="M145.51,197.82v0l0,0Z"/><path class="cls-1" d="M104,168h0l0,0Z"/><path class="cls-1" d="M98.93,168v0Z"/><polygon class="cls-1" points="107.68 168 107.68 168 107.68 168 107.68 168"/><path class="cls-1" d="M104.76,168h0Z"/><path class="cls-1" d="M120.4,113.78h0Z"/><path class="cls-1" d="M168.06,196.78h0a.18.18,0,0,0,.07-.05H168l0,0Z"/><polygon class="cls-1" points="170.98 100.67 170.98 100.67 170.98 100.67 170.98 100.67"/><path class="cls-1" d="M119,0a119,119,0,1,0,119,119A119,119,0,0,0,119,0ZM176.2,48.41c0,.15-.24.43-.41.47s-.55-.16-.67-.47a.39.39,0,0,1,.42-.45C175.85,48,176.17,48.08,176.2,48.41Zm7.11,4.24.11,0h0a1.45,1.45,0,0,1,.34,2.24h-.4c-1,.89-1.94.23-2.9,0h0l-6.52.06h0l-3.3,1.07h0L169.18,57l-1.4,2.68h0l-.09,1h0a4.37,4.37,0,0,1-.3,2.23c0,.22,0,.43-.07.65s0,.51,0,.77L167.4,69h0a3.66,3.66,0,0,1,.3,1.84h0a.65.65,0,0,1,.06.33h0a3.38,3.38,0,0,1,.26,2.21,20.77,20.77,0,0,1,.82,5.48h0l.27,1.1h0c.21,1.32.87,2.55.83,3.92.36,1.83,1.05,3.59,1,5.49a.53.53,0,0,1,0,.35h0a8.34,8.34,0,0,1,.81,3.64,2.28,2.28,0,0,1,.33,1.44,3.36,3.36,0,0,1,.37,1.84h0a2.45,2.45,0,0,1,.31,1.45,16.88,16.88,0,0,1,.72,4,4.9,4.9,0,0,1,.37,2.51h0a14.21,14.21,0,0,1,.75,4c.56.67.22,1.47.32,2.21h0a30,30,0,0,1,.72,5.82h0c-.14,2.11.59,4.18.37,6.3-.07.58.18,1.23-.35,1.71h0c-.58,3.28-1.1,6.57-2.92,9.47h0a4.83,4.83,0,0,1-1.81,3.27h0a.78.78,0,0,1-.37.72h0a5.93,5.93,0,0,1-1.83,2.53c-.57.76-.9,1.72-1.81,2.2h0a38.32,38.32,0,0,1-5.83,5.77h0c-1.06.65-1.61,1.94-2.9,2.28h0a1.18,1.18,0,0,1-.74.66c-1.47,1.48-3.39,2.26-5.15,3.29l-1,.76c-1.22,1.86-3.29,2.76-4.84,4.28a43.92,43.92,0,0,0-5.92,7.22,4.93,4.93,0,0,1-.91.85c0,.12,0,.24,0,.36h0c-.94,2.2-2.44,4.15-2.92,6.55h0c-.49,1.91,0,3.93-.7,5.82h0c.26,1,1,1.8.72,2.9a.91.91,0,0,1,0,1.47h0c.1.36.21.72.32,1.08h0a2.14,2.14,0,0,1,.06.35h0a.93.93,0,0,0,.29,0,1,1,0,0,1,1.2-1,1,1,0,0,1,1,1h0a7.44,7.44,0,0,1,2.16,3h0a1.84,1.84,0,0,1,.77,1.77h0l1.76.07h0c1.1.12,2.27-.39,3.3.37h0c1.22.13,2.44.57,3.64-.08h0a1.49,1.49,0,0,1,1.81-.08l0,.15h1c.38-1.22,1.49-.48,2.2-.81h0c.42-.47.95-.29,1.46-.23s.82.17.51.74c.26-.05.17,1,.47.27.38-.88.76-.85,1.41-.48h0l.86.55h.36c.8.5,1.71.93,1.47,2.14h0c.69.7,1.77,0,2.47.69h0a1.86,1.86,0,0,1,2.22.73c.41,0,.61.34.8.65h0l.36.09c.33.63,1,1.36-.41,1.5h0c-.58.07-1.24.25-1.07-.75-.73-.25-1,.47-1.42.74h0c-1.2,1.1-2.68.47-4,.68a5.75,5.75,0,0,1-2.35.45,3.31,3.31,0,0,1,0,2c-.76-.47-1-1.67-2.15-1.35h0c.25.93-.21,1.43-1.08,1.41-3.52-.1-7.05.29-10.56-.24h0c-1.18,0-2.36,0-3.54-.1-.93-.09-2.07.17-2.56-1.06l.07-.06h0l-.07.06c-.9-.57-1.94-.08-2.89-.35A6.4,6.4,0,0,1,133.5,200l-.14.07-.15,0-.22.08a4.29,4.29,0,0,1-3.49-.09l.07-.08h0l0,.08c-.68-.08-.72-.56-.67-1.09h0l-1.51-.09a.26.26,0,0,1-.29.1c-.31.24-.84.71-1,.33-.28-.69.36-1.11.94-1.41.29-.24.49-.64,1-.49h0c.69-.49,1.5-.18,2.24-.32l.06-.34-1.46-.07-.73,0h0c-1.13.22-1.76-.18-1.79-1.38l-.39-.42c-.6.54-1.45.67-2.12,1.67-.08-1.33.26-1.91,1.07-2.23l1.85-.56a1.24,1.24,0,0,1,1.73-.24l2.52-.44h0c.54-.55,1.21-.33,1.85-.33h0c.28-.41.71-.31,1.11-.31l.68-.11a1.23,1.23,0,0,0,0-.27l-1.24-1.74c-.33-.46-.43-.87.16-1.2.12-.22.23-.44.34-.67h0l-.72-.42h0l-.7-.37c-.76-.39-1-1.2-1.46-1.81h0a2.22,2.22,0,0,1-1.09-1.09,2.4,2.4,0,0,1-1.1-1.08h0a6.27,6.27,0,0,1-2.55-2.91h0a73.5,73.5,0,0,1-4.75-5.82,2.67,2.67,0,0,1-1.8-1.46h0a3.9,3.9,0,0,1-2.19-1.45c-.52,0-1,0-1.08-.75h0a2,2,0,0,1-1.46-.71h0l-3.72-1.26a1.62,1.62,0,0,1-.63-.21l-1.83-.37a.31.31,0,0,0-.25-.16l.25.16c-2-.16-4-.18-6-.53a1.71,1.71,0,0,1-.91-.18H99c-2,.72-4.18.11-6.21.7h0l-.69,0a5.68,5.68,0,0,1-2.58.35l-1.47,0h0l-1.06.06h0a63.75,63.75,0,0,1-9.11,1.45h0a1.94,1.94,0,0,1-1.4.37h0a6,6,0,0,1-2.6.64A2.91,2.91,0,0,1,72,172l-.64.09a7.72,7.72,0,0,1-3.35.7h0a12.72,12.72,0,0,1-4,1.07h0a11.32,11.32,0,0,1-2.91.74h0a1.44,1.44,0,0,1-1.16.32h0a2.64,2.64,0,0,1-1.45.4h0a18.93,18.93,0,0,1-4.62,1.08l-.14-.12a.48.48,0,0,0-.11.09h0a.35.35,0,0,0,.25,0,14.62,14.62,0,0,1-4.09,1.12h0a1.79,1.79,0,0,1-1.39.39,25.3,25.3,0,0,1-5.86,1.47h0A4.65,4.65,0,0,1,40,180a1.31,1.31,0,0,1-1.1.33,8.55,8.55,0,0,1-3.26.77,5.84,5.84,0,0,1-2.55.71l-.58.06h0a11,11,0,0,1-3.82,1.19c-1.12.2-1.39-.13-1.5-1.28h0c.15-.34.31-.68.74-.76h0a4.56,4.56,0,0,1,1.84-1.47,9.33,9.33,0,0,1,3.65-2.09l.75-.36h0a8.84,8.84,0,0,1,3.19-1.51,5.28,5.28,0,0,1,2.6-1.46h0l2.48-1.44a5,5,0,0,1,2.63-1.16.25.25,0,0,1,0-.25l2.55-1.45a3.71,3.71,0,0,1,2.13-1.13l.73-.4h0a28.77,28.77,0,0,1,4.32-2.54h0L56,165l1.71-1.1h0l1.88-1.05h0l.46-.68c-.89-.71-1.94-.24-2.9-.4-.62-.1-1.32.16-1.87-.34h0c-4.84-.13-9.67-.25-14.51-.4a16.35,16.35,0,0,1-2-.28h0l-1.71-.1a6.27,6.27,0,0,1-3.26-1.05c-.73-.36-1.17-1-.39-1.84.2-.72.56-1.25,1.42-1.19h0c-.16-.84.61-.76,1-1a13.69,13.69,0,0,1,4.81-1.88h0a7.68,7.68,0,0,1,3-1,7.77,7.77,0,0,1,2.87-.86,7.3,7.3,0,0,1,2.19-.66,3,3,0,0,1,2.13-.34.64.64,0,0,1,.19-.08,23.82,23.82,0,0,1,7.16-2.11A2.22,2.22,0,0,1,60,147.9l4-1.41a1.45,1.45,0,0,1,.35-.12L68.36,145l1.42-.45a6.2,6.2,0,0,1,3.27-1l.1,0,.3-.15c.44-.88,1.58-.61,2.21-1.18a1.31,1.31,0,0,1,1.07-.43c6.65-3.36,13.11-7.08,19.45-11a2.56,2.56,0,0,1,2-1.25l.57-.36,1.62-1.28a1.06,1.06,0,0,1,0-.25h0a1.66,1.66,0,0,1,1.45-1.11l4-3.27,3.25-2.93h0a2.18,2.18,0,0,1,1.41-1.17h0l1.08-1.06h0a4.06,4.06,0,0,1,1.52-1.39l1.39-1.5.45-.65h0a2.78,2.78,0,0,1,1.48-1.46l.69-.38h0c.24-.36.49-.72.74-1.07h0a2.48,2.48,0,0,1,1.77-1.51l2.21-2.17c.33-.26.5-.73,1-.75h0c.3-1,1.14-1.52,1.82-2.19h0a10.33,10.33,0,0,1,1.86-2.59l.35-.33h0l.38-.7a10.05,10.05,0,0,1,1.86-2.9l2.92-5.8h0c.1-.15.2-.29.31-.43h0a2.25,2.25,0,0,1,.77-1.78,12.82,12.82,0,0,1,1.39-3.73c.11-.25.23-.51.35-.76a3.67,3.67,0,0,1,.76-1.79.19.19,0,0,1,.1-.27,27.34,27.34,0,0,1,1.37-5.11c.32-1.4.63-2.8.95-4.2a1.79,1.79,0,0,1,.13-.59c-.13-.44.35-.65.41-1a2.47,2.47,0,0,1,.62-2.52c-.62-.88.17-1.71.12-2.57h0c0-.13,0-.25,0-.38a1.84,1.84,0,0,1,.27-1.46l.11-.71c.07-.62-.12-1.28.31-1.83h0a15.13,15.13,0,0,1,1-5.11h0a10.22,10.22,0,0,1,.82-2.88,2.87,2.87,0,0,1,.67-1.84,11.91,11.91,0,0,1,1.89-4.37h0c.21-1.23,1.18-2,1.86-2.88h0a1.59,1.59,0,0,1,.65-1.13h0c.21-.38.35-.82.79-1h0c.14-.32.26-.66.63-.8l2.29-2.14c1.47-1,2.77-2.35,4.66-2.64h0a2.72,2.72,0,0,1,1.86-.69h0a2.79,2.79,0,0,1,1.74-.37,1.89,1.89,0,0,1,.51-.12,13.13,13.13,0,0,1,7.24.84h0A7.84,7.84,0,0,1,171,41h0a5.53,5.53,0,0,1,2.18,2.55c.67.31,1,1,1.41,1.48h0c.41.15.79.34.64.86-.08.27-.28.56-.61.17-.62.3-.73,1-1.08,1.48h0c.09.78-.23,1.18-1,1.12h0c.65,1.56,2.12.75,3.19,1.1a5.31,5.31,0,0,1,4.15-.3"/><path class="cls-1" d="M162.25,42.36h0l0,0Z"/><path class="cls-1" d="M140.41,196.37h0v0Z"/><path class="cls-1" d="M141.5,192.45l-.05,0h0l.05.06Z"/><path class="cls-1" d="M144.41,191.75h0Z"/><path class="cls-1" d="M138.29,75.92v0h0Z"/><path class="cls-1" d="M161.54,74.82Z"/><path class="cls-1" d="M139.32,76.3h0l0,0Z"/><path class="cls-1" d="M145.52,197.85h0s0,0,0,.05Z"/></g></g></svg>