<svg xmlns="http://www.w3.org/2000/svg" viewBox="0 0 112 112"><defs><style>.cls-1{isolation:isolate;}.cls-2{fill:#ff4393;}.cls-3{mix-blend-mode:darken;}</style></defs><title>Idicon</title><g class="cls-1"><g id="Warstwa_2" data-name="Warstwa 2"><g id="Warstwa_1-2" data-name="Warstwa 1"><path class="cls-2" d="M56,112a56,56,0,1,1,56-56A56.06,56.06,0,0,1,56,112ZM56,8a48,48,0,1,0,48,48A48.05,48.05,0,0,0,56,8Z"/><g class="cls-3"><path class="cls-2" d="M45.35,32.68H36.17V78.57h9.18V32.68Z"/><path class="cls-2" d="M64.56,38.36a60.36,60.36,0,0,0-9.9.82V78a60.08,60.08,0,0,0,8.38.53c6.62,0,12-1.82,15.41-5.4,3.24-3.4,5.31-8.61,5.31-15.7,0-6.69-2-11.43-5.36-14.54-3.13-3-7.47-4.57-13.84-4.57ZM65,71.61h-.26a11.59,11.59,0,0,1-2.49-.16V45.54a9.91,9.91,0,0,1,3.07-.39c5.64,0,8.78,4,8.75,12.16,0,9.35-.3,14.3-9.07,14.3Z"/></g></g></g></g></svg>