<?xml version="1.0" encoding="UTF-8"?>
<!DOCTYPE svg PUBLIC "-//W3C//DTD SVG 1.1//EN" "http://www.w3.org/Graphics/SVG/1.1/DTD/svg11.dtd">
<!-- Creator: CorelDRAW X6 -->
<svg xmlns="http://www.w3.org/2000/svg" xml:space="preserve" width="117.496mm" height="23.9043mm" version="1.1" style="shape-rendering:geometricPrecision; text-rendering:geometricPrecision; image-rendering:optimizeQuality; fill-rule:evenodd; clip-rule:evenodd"
viewBox="0 0 13473 2741"
 xmlns:xlink="http://www.w3.org/1999/xlink">
 <defs>
  <style type="text/css">
   <![CDATA[
    .fil0 {fill:#0F175A;fill-rule:nonzero}
    .fil1 {fill:#CACDE2;fill-rule:nonzero}
   ]]>
  </style>
 </defs>
 <g id="Warstwa_x0020_1">
  <metadata id="CorelCorpID_0Corel-Layer"/>
  <path class="fil0" d="M9795 2167l0 24 0 4 -4 0 -46 5c2,4 4,8 6,12 3,7 6,15 8,24l0 0c2,9 4,18 5,27 1,9 2,19 2,28 0,19 -2,37 -7,53 -4,16 -11,30 -20,42l0 0c-9,12 -20,22 -32,28 -12,6 -25,9 -40,9l-9 0 0 0 -6 -1c-5,4 -10,7 -14,11 -4,4 -8,8 -11,12l0 0c-3,4 -5,8 -7,12l0 0c-1,4 -2,9 -2,14 0,5 1,9 3,13 2,4 5,7 8,9 4,3 9,5 14,6 5,1 12,2 19,2l25 0c18,0 34,2 48,7 14,5 26,12 36,21l0 0c10,9 18,21 23,35 5,14 8,29 8,47 0,20 -3,38 -10,53 -7,16 -17,30 -30,41 -13,12 -29,20 -47,26 -18,6 -37,9 -59,9 -18,0 -34,-2 -48,-7l0 0c-14,-5 -26,-12 -36,-21l0 0c-10,-9 -17,-21 -22,-34 -5,-13 -7,-29 -7,-46 0,-13 2,-25 5,-35 3,-11 8,-21 15,-30l0 0c7,-9 15,-17 25,-24l0 0c8,-5 17,-10 27,-15 -3,-2 -6,-4 -8,-6 -5,-4 -10,-8 -14,-13 -4,-5 -7,-11 -9,-17l0 0c-2,-6 -3,-13 -3,-20 0,-6 1,-12 3,-18 2,-6 5,-11 10,-16 4,-5 9,-10 15,-15 4,-4 9,-7 14,-11 -8,-4 -15,-10 -21,-16 -8,-8 -15,-17 -20,-28l0 0c-5,-11 -9,-22 -12,-34 -3,-12 -4,-26 -4,-40 0,-21 2,-40 7,-57 5,-17 11,-32 21,-44 9,-13 20,-22 33,-28 13,-6 27,-10 43,-10 8,0 16,1 23,2 7,1 13,3 19,5l82 0 4 0 0 4zm3639 -12c6,0 13,0 18,1 6,1 12,2 17,4l4 1 -1 4 -8 34 -1 5 -5 -2c-4,-2 -8,-3 -12,-4l0 0c-4,-1 -8,-1 -13,-1 -6,0 -12,2 -17,5l0 0c-6,3 -11,8 -17,14l0 0c-5,7 -10,14 -15,24 -4,9 -8,20 -11,32 -3,12 -6,25 -7,38l0 0c-2,13 -2,27 -2,41l0 208 0 4 -4 0 -34 0 -4 0 0 -4 0 -392 0 -4 4 0 28 0 4 0 0 4 3 54c8,-19 18,-35 28,-45 13,-14 28,-20 45,-20zm-288 416c-21,0 -40,-5 -57,-14l0 0c-17,-9 -31,-23 -42,-41 -11,-18 -20,-40 -26,-65 -6,-25 -8,-53 -8,-85 0,-34 3,-63 8,-89l0 0c5,-26 13,-48 23,-66l0 0c10,-18 23,-32 38,-41 15,-9 32,-14 52,-14 17,0 32,4 46,12l0 0c13,8 25,20 35,36l0 0c10,16 17,34 22,56 5,21 7,45 7,72l0 32 0 4 -4 0 -181 0c0,26 2,50 6,70 4,21 10,38 17,52l0 0c7,14 17,24 28,30 11,7 24,10 39,10 12,0 24,-2 37,-6 13,-4 26,-10 39,-18l7 -4 0 8 0 33 0 2 -2 1c-13,8 -26,14 -40,18l0 0c-14,4 -28,6 -42,6zm-16 -376c-22,0 -39,11 -51,33 -12,22 -20,55 -22,100l142 0c0,-20 -2,-37 -5,-53 -3,-17 -8,-31 -14,-44 -6,-12 -14,-21 -22,-27 -8,-6 -17,-9 -28,-9zm-237 364l0 -270c0,-32 -5,-55 -14,-71 -9,-15 -22,-22 -40,-22 -14,0 -26,3 -36,9l0 0c-10,6 -18,14 -25,26 -7,12 -12,27 -15,46 -3,19 -5,42 -5,68l0 215 0 4 -4 0 -34 0 -4 0 0 -4 0 -392 0 -4 4 0 29 0 4 0 0 4 2 43c3,-6 7,-12 11,-17 6,-8 13,-15 21,-21l0 0c8,-6 17,-10 25,-13 9,-3 18,-4 27,-4 16,0 30,3 42,8 12,5 22,14 30,24 8,11 14,24 18,41 4,17 6,36 6,59l0 271 0 4 -4 0 -34 0 -4 0 0 -4zm-231 -392l0 24 0 4 -4 0 -46 5c2,4 4,8 6,12 3,7 6,15 8,24l0 0c2,9 4,18 5,27 1,9 2,19 2,28 0,19 -2,37 -7,53 -4,16 -11,30 -20,42l0 0c-9,12 -20,22 -32,28 -12,6 -25,9 -40,9l-9 0 0 0 -6 -1c-5,4 -10,7 -14,11 -4,4 -8,8 -11,12 -3,4 -5,8 -7,12 -1,4 -2,9 -2,14 0,5 1,9 3,13 2,4 5,7 8,9l0 0c4,3 8,5 14,6 5,1 12,2 19,2l25 0c18,0 34,2 48,7 14,5 26,12 36,21 10,9 18,21 23,35 5,14 8,29 8,47 0,20 -3,38 -10,53 -7,16 -17,30 -30,41 -13,12 -29,20 -47,26 -18,6 -37,9 -59,9 -18,0 -34,-2 -48,-7l0 0c-14,-5 -26,-12 -36,-21l0 0c-10,-9 -17,-21 -22,-34 -5,-13 -7,-29 -7,-46 0,-13 2,-25 5,-36 3,-11 8,-21 15,-30 7,-9 15,-17 25,-24l0 0c8,-5 17,-10 27,-15 -3,-2 -6,-4 -8,-6 -5,-4 -10,-8 -13,-13 -4,-5 -7,-11 -9,-17 -2,-6 -3,-13 -3,-20 0,-6 1,-12 3,-18 2,-6 5,-11 10,-16l0 0c4,-5 9,-10 15,-15 4,-4 9,-7 14,-11 -8,-4 -15,-10 -21,-16 -8,-8 -15,-17 -20,-28l0 0c-5,-11 -9,-22 -12,-34 -3,-12 -4,-26 -4,-40 0,-21 2,-40 7,-57 5,-17 11,-32 20,-44l0 0c9,-13 20,-22 33,-28 13,-6 27,-10 43,-10 8,0 16,1 23,2 7,1 13,3 19,5l82 0 4 0 0 4zm-190 128c0,16 1,29 4,41 3,12 7,21 13,29 5,8 12,13 19,17 7,4 15,6 24,6 19,0 34,-8 43,-23 10,-16 15,-41 15,-74 0,-16 -1,-30 -4,-43 -3,-12 -6,-23 -12,-31l0 0c-5,-9 -11,-15 -18,-19 -7,-4 -15,-6 -25,-6 -10,0 -18,2 -26,6 -7,4 -14,11 -19,20l0 0c-5,9 -9,20 -12,33 -3,13 -4,28 -4,44zm-21 334c0,12 2,23 5,32 3,9 8,17 14,23l0 0c6,6 13,11 22,15 9,3 20,5 33,5 16,0 30,-2 42,-6l0 0c12,-4 23,-10 32,-18l0 0c9,-8 16,-17 20,-28l0 0c4,-11 7,-24 7,-38 0,-11 -2,-21 -5,-30l0 0c-3,-8 -7,-16 -13,-22 -6,-6 -13,-10 -22,-13 -9,-3 -19,-5 -31,-5l-25 0c-11,0 -21,2 -31,6 -9,4 -17,10 -25,18l0 0c-7,8 -13,17 -17,27 -4,10 -6,22 -6,35zm-147 -571c0,-12 2,-21 7,-28l0 0c3,-4 6,-6 9,-8 3,-2 7,-3 12,-3 4,0 8,1 11,3l0 0c3,2 6,5 8,8 2,3 4,8 5,12 1,5 2,10 2,15 0,6 -1,11 -2,15 -1,5 -3,9 -5,12l0 0c-2,4 -5,6 -8,8 -3,2 -7,3 -11,3 -4,0 -8,-1 -12,-3 -3,-2 -7,-5 -9,-8l0 0c-2,-4 -4,-8 -6,-12 -1,-4 -2,-10 -2,-15zm44 505l-34 0 -4 0 0 -4 0 -392 0 -4 4 0 34 0 4 0 0 4 0 392 0 4 -4 0zm-109 -102c0,17 -2,32 -7,46 -5,14 -11,25 -20,35 -9,10 -20,17 -33,22 -13,5 -28,7 -45,7 -9,0 -18,-1 -26,-2 -8,-1 -16,-3 -23,-5l0 0c-7,-2 -13,-5 -18,-7 -6,-3 -10,-5 -14,-8l-2 -1 0 -2 0 -40 0 -11 7 7c4,4 9,8 15,11l0 0c6,3 12,6 19,9l0 0c7,3 14,5 22,6 7,1 15,2 22,2 10,0 18,-2 25,-5 7,-3 14,-8 19,-14 5,-6 9,-13 12,-22 3,-8 4,-18 4,-29 0,-8 -1,-16 -3,-23 -2,-7 -5,-13 -9,-19 -4,-6 -10,-12 -17,-18 -8,-7 -17,-14 -29,-21l0 0c-13,-8 -25,-16 -34,-23 -9,-7 -17,-13 -22,-18 -5,-5 -9,-11 -13,-17 -4,-6 -7,-12 -10,-19l0 0c-3,-7 -5,-14 -6,-22 -1,-8 -2,-16 -2,-25 0,-15 2,-28 7,-40 5,-12 12,-23 22,-33l0 0c10,-10 21,-17 34,-22 13,-5 26,-7 42,-7 16,0 31,2 45,6l0 0c14,4 26,10 37,17l3 2 -2 3 -18 30 -2 4 -4 -3c-9,-6 -19,-11 -29,-14l0 0c-10,-3 -20,-5 -31,-5 -10,0 -18,1 -26,4 -7,3 -14,7 -20,12 -6,6 -10,12 -13,19 -3,7 -4,16 -4,25 0,8 1,16 3,23 2,7 5,13 9,18l0 0c4,6 10,12 18,19 9,7 19,15 32,23l0 0c13,8 24,16 33,23 9,7 16,13 21,19l0 0c5,5 9,11 13,17 4,6 7,12 9,19 2,6 4,13 5,21 1,7 2,15 2,23zm-337 110c-21,0 -40,-5 -57,-14l0 0c-17,-9 -31,-23 -42,-41 -11,-18 -20,-40 -26,-65 -6,-25 -8,-53 -8,-85 0,-34 3,-63 8,-89 5,-26 13,-48 23,-66 10,-18 23,-32 38,-41 15,-9 32,-14 52,-14 17,0 32,4 46,12 13,8 25,20 35,36l0 0c10,16 17,34 22,56 5,21 7,45 7,72l0 32 0 4 -4 0 -181 0c0,26 3,50 6,70 4,21 10,38 17,52 7,14 17,24 28,30 11,7 24,10 39,10 12,0 24,-2 37,-6 13,-4 26,-10 39,-18l7 -4 0 8 0 33 0 2 -2 1c-13,8 -26,14 -40,18l0 0c-14,4 -28,6 -42,6zm-16 -376c-22,0 -39,11 -51,33 -12,22 -20,55 -22,100l142 0c0,-19 -2,-37 -5,-53 -3,-17 -8,-31 -14,-44 -6,-12 -14,-21 -22,-27l0 0c-8,-6 -17,-9 -28,-9zm-323 376c-40,0 -70,-18 -89,-53 -19,-34 -29,-86 -29,-154 0,-33 2,-63 7,-89 5,-26 12,-48 22,-66 10,-18 22,-32 37,-41 15,-9 32,-14 51,-14 9,0 18,1 27,4l0 0c9,3 17,7 25,12 8,5 16,12 22,19 4,5 8,10 11,15l-1 -32 0 0 0 -176 0 -4 4 0 34 0 4 0 0 4 0 562 0 4 -4 0 -28 0 -4 0 0 -4 -2 -44c-4,7 -8,13 -12,19 -6,8 -13,15 -21,20l0 0c-8,6 -16,10 -25,13 -9,3 -19,4 -29,4zm2 -39c13,0 24,-3 34,-9 10,-6 18,-15 25,-27 7,-12 13,-28 16,-46 4,-18 5,-40 5,-64l0 -22c0,-29 -2,-55 -5,-76 -3,-21 -9,-39 -16,-52 -7,-13 -15,-23 -26,-29 -10,-6 -22,-10 -36,-10 -13,0 -24,3 -34,10 -9,7 -17,17 -23,31l0 0c-6,14 -11,32 -14,53 -3,21 -5,46 -5,73 0,28 2,52 5,74 3,21 8,39 14,53l0 0c6,14 14,24 23,31 9,7 21,10 34,10zm-366 39c-20,0 -38,-4 -54,-13 -15,-9 -28,-22 -39,-40 -10,-17 -18,-39 -23,-65 -5,-25 -8,-55 -8,-88 0,-34 3,-63 8,-89 5,-26 13,-48 23,-66l0 0c10,-18 23,-32 39,-41 16,-9 34,-14 54,-14 12,0 24,1 34,3 11,2 20,6 28,11l3 2 -2 4 -13 30 -2 4 -4 -2c-8,-4 -15,-6 -22,-8 -7,-2 -14,-3 -20,-3 -27,0 -47,14 -61,41 -14,28 -21,71 -21,127 0,56 7,98 21,126 14,27 34,40 61,40 8,0 17,-1 26,-3 9,-2 18,-5 28,-8l6 -2 0 6 0 29 0 3 -2 1c-4,2 -9,4 -14,6l0 0c-5,2 -11,3 -17,5l0 0c-6,1 -11,2 -17,3l0 0c-5,1 -10,1 -14,1zm-249 -513c0,-6 1,-11 2,-15 1,-5 3,-9 6,-12 3,-4 6,-6 9,-8l0 0c4,-2 7,-3 12,-3 4,0 8,1 11,3l0 0c3,2 6,5 8,8l0 0c2,3 4,8 5,12 1,4 2,10 2,15 0,5 -1,10 -2,15 -1,5 -3,9 -5,12l0 0c-2,4 -5,6 -8,8l0 0c-3,2 -7,3 -11,3 -4,0 -8,-1 -12,-3l0 0c-3,-2 -6,-5 -9,-8l0 0c-3,-4 -4,-8 -6,-12 -1,-4 -2,-10 -2,-15zm44 505l-34 0 -4 0 0 -4 0 -392 0 -4 4 0 34 0 4 0 0 4 0 392 0 4 -4 0zm-176 -4l0 -270c0,-17 -1,-32 -3,-45 -2,-12 -5,-21 -10,-28l0 0c-4,-7 -10,-12 -17,-15l0 0c-7,-3 -15,-5 -25,-5 -13,0 -25,3 -34,9 -10,6 -18,14 -25,26 -7,12 -12,27 -15,46 -3,19 -5,42 -5,68l0 215 0 4 -4 0 -34 0 -4 0 0 -4 0 -562 0 -4 4 0 34 0 4 0 0 4 0 183c0,8 0,16 0,23l0 3c3,-5 6,-9 9,-13 6,-8 13,-15 21,-20l0 0c8,-6 16,-10 25,-13 9,-3 17,-4 26,-4 17,0 32,3 44,9l0 0c13,6 23,14 30,26l0 0c7,11 13,25 16,42 4,16 5,36 5,57l0 270 0 4 -4 0 -34 0 -4 0 0 -4zm-369 12c-10,0 -20,-1 -30,-4l0 0c-9,-3 -18,-7 -27,-13 -8,-6 -16,-12 -22,-20 -4,-5 -7,-10 -10,-15l2 29 0 0 0 189 0 4 -4 0 -34 0 -4 0 0 -4 0 -570 0 -4 4 0 28 0 4 0 0 4 3 44c4,-7 8,-13 13,-19 6,-8 14,-15 21,-20l0 0c8,-6 16,-10 25,-12 9,-3 18,-4 27,-4 40,0 70,18 90,53 20,34 29,86 29,154 0,33 -2,62 -7,87l0 0c-5,26 -12,47 -22,66l0 0c-10,18 -22,32 -36,41 -14,9 -31,14 -50,14zm-7 -374c-14,0 -25,3 -35,9 -10,6 -18,15 -25,27 -7,12 -12,28 -15,47 -3,20 -5,43 -5,69l0 11c0,30 2,56 5,78 3,22 9,39 16,53 7,13 15,23 25,30 10,7 22,10 36,10 13,0 24,-3 33,-10l0 0c9,-7 17,-16 23,-30 6,-14 11,-31 14,-53 3,-22 5,-47 5,-76 0,-28 -2,-53 -5,-74 -3,-21 -8,-38 -14,-52l0 0c-6,-13 -14,-24 -23,-30 -10,-7 -22,-10 -36,-10zm-255 363l-3 -42c-9,16 -19,28 -31,37 -15,11 -33,16 -52,16 -13,0 -26,-3 -37,-8 -11,-5 -20,-13 -29,-24 -8,-11 -14,-23 -18,-37 -4,-14 -6,-30 -6,-47 0,-19 3,-36 9,-52 6,-15 15,-29 26,-40l0 0c12,-11 26,-20 42,-26 16,-6 35,-10 55,-11l38 -2 0 -28c0,-18 -1,-34 -3,-47 -2,-13 -6,-23 -10,-31l0 0c-4,-8 -10,-13 -16,-17 -7,-4 -15,-6 -25,-6 -11,0 -22,2 -33,5 -11,4 -22,9 -34,16l-4 2 -2 -4 -15 -27 -2 -4 4 -2c14,-9 28,-15 43,-19 15,-4 30,-7 45,-7 17,0 31,3 43,8 12,5 22,14 30,24 7,11 13,25 17,42 4,17 5,38 5,62l0 267 0 4 -4 0 -28 0 -4 0 0 -4zm-79 -27c11,0 22,-3 30,-8 9,-6 17,-14 23,-26l0 0c7,-12 12,-26 15,-43 3,-17 5,-36 5,-58l0 -36 -36 2c-15,1 -29,3 -40,8 -11,4 -20,10 -27,17 -7,7 -13,17 -16,27 -4,11 -6,24 -6,39 0,14 1,26 4,36 2,10 6,18 11,24 5,6 10,11 16,14 6,3 13,5 21,5zm-147 -377c6,0 13,0 18,1 6,1 12,2 17,4l4 1 -1 4 -8 34 -1 5 -5 -2c-4,-2 -8,-3 -12,-4l0 0c-4,-1 -8,-1 -13,-1 -6,0 -12,2 -17,5 -6,3 -11,8 -17,14 -5,7 -10,14 -15,24 -4,9 -8,20 -11,32 -3,12 -6,25 -7,38 -2,13 -2,27 -2,41l0 208 0 4 -4 0 -34 0 -4 0 0 -4 0 -392 0 -4 4 0 28 0 4 0 0 4 3 54c8,-19 18,-35 28,-45 13,-14 28,-20 45,-20zm-357 140c0,16 1,29 4,41 3,12 7,21 13,29l0 0c5,8 12,13 19,17 7,4 15,6 24,6 19,0 34,-8 43,-23l0 0c10,-16 15,-41 15,-74 0,-16 -1,-30 -4,-43l0 0c-3,-12 -6,-23 -12,-31 -5,-9 -11,-15 -18,-19 -7,-4 -15,-6 -25,-6 -10,0 -18,2 -26,6 -7,4 -14,11 -19,20 -5,9 -9,20 -12,33 -3,13 -4,28 -4,44zm-21 334c0,12 2,23 5,32l0 0c3,9 8,17 14,23l0 0c6,6 13,11 23,15 9,3 20,5 33,5 16,0 30,-2 42,-6 12,-4 23,-10 32,-18l0 0c9,-8 16,-17 20,-28 4,-11 7,-24 7,-38 0,-11 -2,-21 -5,-30 -3,-8 -7,-16 -13,-22l0 0c-6,-6 -13,-10 -22,-13 -9,-3 -19,-5 -31,-5l-25 0c-11,0 -21,2 -31,6 -9,4 -18,10 -25,18l0 0c-7,8 -13,17 -17,27 -4,10 -6,22 -6,35z"/>
  <polygon class="fil1" points="2055,922 1723,779 1781,425 1668,360 1600,776 1107,1061 1107,482 1440,228 1326,163 1034,386 749,157 636,222 958,481 958,1061 468,778 406,355 293,420 348,797 10,935 10,1067 429,895 911,1174 415,1461 10,1288 10,1419 358,1568 299,1931 411,1996 482,1562 958,1287 958,1877 634,2125 748,2190 1047,1962 1326,2186 1438,2121 1107,1855 1107,1287 1615,1580 1674,1985 1787,1920 1733,1550 2055,1419 2055,1288 1643,1456 1154,1174 1657,883 2055,1054 "/>
  <g id="_898055232">
   <path class="fil0" d="M966 67c0,-37 30,-67 67,-67 37,0 67,30 67,67 0,37 -30,67 -67,67 -37,0 -67,-30 -67,-67z"/>
   <path class="fil0" d="M964 2287c0,-37 30,-67 67,-67 37,0 67,30 67,67 0,37 -30,67 -67,67 -37,0 -67,-30 -67,-67z"/>
   <path class="fil0" d="M36 682c-32,-18 -43,-59 -25,-91 18,-32 59,-43 91,-25 32,18 43,59 25,91 -18,32 -59,43 -91,25z"/>
   <path class="fil0" d="M1961 1788c-32,-18 -43,-59 -25,-91 18,-32 59,-43 91,-25 32,18 43,59 25,91 -18,32 -59,43 -91,25z"/>
   <path class="fil0" d="M100 1785c-32,18 -73,7 -91,-25 -18,-32 -7,-73 25,-91 32,-18 73,-7 91,25 18,32 7,73 -25,91z"/>
   <path class="fil0" d="M2030 686c-32,18 -73,7 -91,-25 -18,-32 -7,-73 25,-91 32,-18 73,-7 91,25 18,32 7,73 -25,91z"/>
  </g>
  <path class="fil0" d="M2654 606l106 0 0 588 297 -588 100 0 -228 478 278 635 -103 0 -245 -557 -99 182 0 375 -106 0 0 -1114zm10613 -336l100 0 -135 270 -52 0 87 -270zm-320 336l76 0 355 865 0 -865 91 0 0 1114 -74 0 -356 -874 0 874 -91 0 0 -1114zm-549 0l403 0 0 81 -297 0 0 418 242 0 0 77 -242 0 0 459 300 0 0 78 -406 0 0 -1114zm-301 1114l105 0 0 -1114 -105 0 0 1114zm-613 -78l373 -957 -342 0 0 -78 455 0 0 55 -382 980 382 0 0 78 -485 0 0 -78zm-421 0c56,0 98,-12 126,-35 28,-23 46,-54 54,-93 8,-39 12,-90 12,-153l0 -415c0,-60 -5,-109 -15,-145 -10,-36 -29,-64 -58,-83 -28,-19 -70,-29 -124,-29l-136 0 0 954 140 0zm-245 -1035l242 0c110,0 188,28 234,85 46,56 69,137 69,243l0 443c0,111 -22,196 -67,255 -44,59 -120,89 -226,89l-252 0 0 -1114zm-689 1046c-41,-54 -62,-133 -62,-236l0 -810 102 0 0 813c0,73 13,130 39,170 26,40 74,61 144,61 67,0 114,-20 142,-61 28,-41 41,-97 41,-170l0 -813 100 0 0 810c0,101 -21,179 -64,234 -43,55 -116,83 -219,83 -107,0 -181,-27 -223,-82zm-507 -556c67,0 114,-17 140,-49 27,-33 40,-85 40,-157 0,-72 -13,-125 -38,-157 -25,-32 -72,-48 -140,-48l-144 0 0 411 142 0zm-246 -489l252 0c100,0 171,24 213,72 42,48 63,118 63,211 0,71 -11,129 -34,175 -23,46 -63,75 -120,87l170 569 -102 0 -164 -547 -175 0 0 547 -104 0 0 -1114zm-674 1037c-42,-61 -63,-149 -63,-263l0 -434c0,-115 21,-203 62,-262 41,-59 115,-89 220,-89 96,0 165,27 207,80 42,54 63,134 63,240l0 39 -99 0 0 -39c0,-83 -12,-144 -36,-181 -24,-37 -68,-56 -133,-56 -49,0 -86,11 -112,32 -26,21 -44,50 -52,86 -9,36 -13,82 -13,138l0 458c0,87 13,152 38,194 25,42 72,63 141,63 65,0 110,-21 136,-64 26,-43 39,-108 39,-196l0 -131 -165 0 0 -78 261 0 0 539 -67 0 -12 -126c-16,45 -39,80 -71,104 -32,25 -75,37 -129,37 -100,0 -171,-31 -212,-91zm-626 -298l-118 -601 -118 601 236 0zm-175 -740l110 0 237 1114 -103 0 -55 -298 -265 0 -56 298 -102 0 235 -1114zm-890 0l76 0 355 865 0 -865 91 0 0 1114 -74 0 -356 -874 0 874 -91 0 0 -1114zm-467 744l-252 -744 102 0 201 619 192 -619 103 0 -245 744 0 370 -102 0 0 -370zm-788 291l373 -957 -342 0 0 -78 455 0 0 55 -382 980 382 0 0 78 -485 0 0 -78zm-407 -546c67,0 114,-17 140,-49 27,-33 40,-85 40,-157 0,-72 -13,-125 -38,-157 -25,-32 -72,-48 -140,-48l-144 0 0 411 142 0zm-246 -489l252 0c100,0 171,24 213,72 42,48 63,118 63,211 0,71 -11,129 -34,175 -23,46 -63,75 -120,87l170 569 -102 0 -164 -547 -175 0 0 547 -105 0 0 -1114zm-307 740l-118 -601 -118 601 236 0zm-175 -740l110 0 236 1114 -103 0 -55 -298 -265 0 -56 298 -102 0 235 -1114zm-572 81l-210 0 0 -81 520 0 0 81 -205 0 0 1033 -105 0 0 -1033zm-395 659l-118 -601 -118 601 236 0zm-175 -740l110 0 236 1114 -103 0 -55 -298 -265 0 -56 298 -102 0 235 -1114z"/>
 </g>
</svg>
