<svg xmlns="http://www.w3.org/2000/svg" viewBox="0 0 240 240"><defs><style>.cls-1{fill:#fff;}</style></defs><title>mailicon</title><g id="Warstwa_2" data-name="Warstwa 2"><g id="Warstwa_1-2" data-name="Warstwa 1"><path class="cls-1" d="M120,0A120,120,0,1,0,240,120,120,120,0,0,0,120,0Zm0,42.15,71,44.28H49Zm71.89,115h0A12.86,12.86,0,0,1,179,170H61a12.86,12.86,0,0,1-12.86-12.86V89.25a13.33,13.33,0,0,1,.2-2.2l67.85,42.31.25.13.28.14a7,7,0,0,0,1.47.58l.16,0a7.43,7.43,0,0,0,1.68.21h0a6.76,6.76,0,0,0,1.67-.21l.16,0a7.1,7.1,0,0,0,1.48-.58l.27-.14.25-.13,67.85-42.31a12.25,12.25,0,0,1,.2,2.2Z"/></g></g></svg>