<svg xmlns="http://www.w3.org/2000/svg" viewBox="0 0 112 112"><defs><style>.cls-1{fill:#f07aff;}</style></defs><title>Pricon</title><g id="Warstwa_2" data-name="Warstwa 2"><g id="Warstwa_1-2" data-name="Warstwa 1"><path class="cls-1" d="M56,112a56,56,0,1,1,56-56A56.06,56.06,0,0,1,56,112ZM56,8a48,48,0,1,0,48,48A48.05,48.05,0,0,0,56,8Z"/><path class="cls-1" d="M59.37,36.79c-3-2.5-7.51-3.77-13.44-3.77A72.63,72.63,0,0,0,33.44,34l-.51.09V79H42.2V62.31a22.28,22.28,0,0,0,3.33.2c6.14,0,11.14-1.72,14.47-5,2.57-2.51,3.94-6.13,3.94-10.46A13.17,13.17,0,0,0,59.37,36.79ZM45.53,55a15,15,0,0,1-3.33-.25V40.8a23.49,23.49,0,0,1,4.06-.29c5.42,0,8.41,2.45,8.41,6.89C54.67,52.13,51.25,55,45.53,55Z"/><path class="cls-1" d="M67.33,56.92c0-4.41-.06-7.62-.26-10.49h7.68l.33,6.15h.2a9.75,9.75,0,0,1,9-6.89,8.9,8.9,0,0,1,1.94.2v7.69a13.59,13.59,0,0,0-2.48-.2,7.24,7.24,0,0,0-7.35,6.22,14.53,14.53,0,0,0-.2,2.47V79H67.33Z"/></g></g></svg>