<svg xmlns="http://www.w3.org/2000/svg" viewBox="0 0 240 240"><defs><style>.cls-1{fill:#fff;}</style></defs><title>smarticon</title><g id="Warstwa_2" data-name="Warstwa 2"><g id="Warstwa_1-2" data-name="Warstwa 1"><path class="cls-1" d="M129.38,172.77A9.38,9.38,0,1,1,120,163.4a9.38,9.38,0,0,1,9.38,9.37Z"/><path class="cls-1" d="M149.41,54.6H90.59c-3.3,0-6,2-6,4.41v86.07c0,2.44,2.69,4.42,6,4.42h58.82c3.3,0,6-2,6-4.42V59c0-2.43-2.68-4.41-6-4.41Z"/><path class="cls-1" d="M120,0A120,120,0,1,0,240,120,120,120,0,0,0,120,0Zm46.68,179.22a16.6,16.6,0,0,1-16.6,16.6H89.91a16.61,16.61,0,0,1-16.6-16.6v-119a16.6,16.6,0,0,1,16.6-16.6h60.17a16.6,16.6,0,0,1,16.6,16.6Z"/></g></g></svg>